HIERARCHY
ROOT Hips
{
	OFFSET 0.00000 0.00000 0.00000
	CHANNELS 6 Xposition Yposition Zposition Zrotation Yrotation Xrotation 
	JOINT LHipJoint
	{
		OFFSET 0 0 0
		CHANNELS 3 Zrotation Yrotation Xrotation
		JOINT LeftUpLeg
		{
			OFFSET 1.41496 -1.84582 0.78394
			CHANNELS 3 Zrotation Yrotation Xrotation
			JOINT LeftLeg
			{
				OFFSET 2.58040 -7.08960 0.00000
				CHANNELS 3 Zrotation Yrotation Xrotation
				JOINT LeftFoot
				{
					OFFSET 2.64719 -7.27309 0.00000
					CHANNELS 3 Zrotation Yrotation Xrotation
					JOINT LeftToeBase
					{
						OFFSET 0.20718 -0.56921 2.20259
						CHANNELS 3 Zrotation Yrotation Xrotation
						End Site
						{
							OFFSET 0.00000 -0.00000 1.14243
						}
					}
				}
			}
		}
	}
	JOINT RHipJoint
	{
		OFFSET 0 0 0
		CHANNELS 3 Zrotation Yrotation Xrotation
		JOINT RightUpLeg
		{
			OFFSET -1.40551 -1.84582 0.78394
			CHANNELS 3 Zrotation Yrotation Xrotation
			JOINT RightLeg
			{
				OFFSET -2.56572 -7.04926 0.00000
				CHANNELS 3 Zrotation Yrotation Xrotation
				JOINT RightFoot
				{
					OFFSET -2.57974 -7.08778 0.00000
					CHANNELS 3 Zrotation Yrotation Xrotation
					JOINT RightToeBase
					{
						OFFSET -0.26704 -0.73369 2.20815
						CHANNELS 3 Zrotation Yrotation Xrotation
						End Site
						{
							OFFSET -0.00000 -0.00000 1.16246
						}
					}
				}
			}
		}
	}
	JOINT LowerBack
	{
		OFFSET 0 0 0
		CHANNELS 3 Zrotation Yrotation Xrotation
		JOINT Spine
		{
			OFFSET -0.04690 2.05196 -0.07017
			CHANNELS 3 Zrotation Yrotation Xrotation
			JOINT Spine1
			{
				OFFSET 0.04085 2.05260 0.00800
				CHANNELS 3 Zrotation Yrotation Xrotation
				JOINT Neck
				{
					OFFSET 0 0 0
					CHANNELS 3 Zrotation Yrotation Xrotation
					JOINT Neck1
					{
						OFFSET -0.03582 1.80995 0.19301
						CHANNELS 3 Zrotation Yrotation Xrotation
						JOINT Head
						{
							OFFSET 0.00952 1.80195 -0.36389
							CHANNELS 3 Zrotation Yrotation Xrotation
							End Site
							{
								OFFSET 0.00392 1.85062 -0.14494
							}
						}
					}
				}
				JOINT LeftShoulder
				{
					OFFSET 0 0 0
					CHANNELS 3 Zrotation Yrotation Xrotation
					JOINT LeftArm
					{
						OFFSET 3.55224 1.39726 -0.13667
						CHANNELS 3 Zrotation Yrotation Xrotation
						JOINT LeftForeArm
						{
							OFFSET 5.14507 -0.00000 -0.00000
							CHANNELS 3 Zrotation Yrotation Xrotation
							JOINT LeftHand
							{
								OFFSET 3.50646 -0.00000 0.00000
								CHANNELS 3 Zrotation Yrotation Xrotation
								JOINT LeftFingerBase
								{
									OFFSET 0 0 0
									CHANNELS 3 Zrotation Yrotation Xrotation
									JOINT LeftHandIndex1
									{
										OFFSET 0.62997 -0.00000 0.00000
										CHANNELS 3 Zrotation Yrotation Xrotation
										End Site
										{
											OFFSET 0.50790 -0.00000 0.00000
										}
									}
								}
								JOINT LThumb
								{
									OFFSET 0 0 0
									CHANNELS 3 Zrotation Yrotation Xrotation
									End Site
									{
										OFFSET 0.51565 -0.00000 0.51565
									}
								}
							}
						}
					}
				}
				JOINT RightShoulder
				{
					OFFSET 0 0 0
					CHANNELS 3 Zrotation Yrotation Xrotation
					JOINT RightArm
					{
						OFFSET -3.06467 1.61290 -0.28813
						CHANNELS 3 Zrotation Yrotation Xrotation
						JOINT RightForeArm
						{
							OFFSET -5.23200 -0.00000 -0.00000
							CHANNELS 3 Zrotation Yrotation Xrotation
							JOINT RightHand
							{
								OFFSET -3.65641 -0.00000 0.00000
								CHANNELS 3 Zrotation Yrotation Xrotation
								JOINT RightFingerBase
								{
									OFFSET 0 0 0
									CHANNELS 3 Zrotation Yrotation Xrotation
									JOINT RightHandIndex1
									{
										OFFSET -0.65681 -0.00000 0.00000
										CHANNELS 3 Zrotation Yrotation Xrotation
										End Site
										{
											OFFSET -0.52953 -0.00000 0.00000
										}
									}
								}
								JOINT RThumb
								{
									OFFSET 0 0 0
									CHANNELS 3 Zrotation Yrotation Xrotation
									End Site
									{
										OFFSET -0.53762 -0.00000 0.53762
									}
								}
							}
						}
					}
				}
			}
		}
	}
}
MOTION
Frames: 5
Frame Time: .0083333
1.9880 17.9365 -26.1544 -181.1290 -15.9826 -179.3650 0.0000 0.0000 0.0000 -19.2103 -14.7891 -16.9946 3.9760 12.1284 36.1879 -0.1100 -19.2285 -12.5584 0.0683 1.6864 4.6398 0.0000 0.0000 0.0000 11.0586 15.1789 -15.2366 -2.4994 -9.8368 28.4499 -0.2033 5.8345 -8.4233 -1.7201 8.2569 -23.4970 -0.6966 -2.0941 11.7837 1.7516 -2.8321 -0.2392 2.7350 -1.3589 -6.7441 -6.5479 -5.7902 -15.3731 3.8151 -6.9295 10.2866 1.5858 -3.3372 5.9819 -0.0000 0.0000 0.0000 -89.9130 12.5883 12.1696 30.3930 -41.2279 -11.6678 -0.0000 -0.0000 7.9802 13.4905 0.6709 0.1609 -7.1250 0.0000 -0.0000 -10.3383 30.5769 3.6954 -0.0000 0.0000 0.0000 82.9536 -11.8379 3.0203 -27.3463 38.5075 -9.7140 0.0000 -0.0000 -3.1094 -26.9631 -10.2529 5.1739 7.1250 -0.0000 -0.0000 0.0605 -41.4516 0.0053
1.9563 17.9429 -26.1753 -181.1810 -15.7155 -179.3350 0.0000 0.0000 0.0000 -19.3732 -14.6559 -16.8029 3.9424 12.0834 36.0276 -0.0993 -19.1667 -12.6076 0.0822 1.8495 5.0900 0.0000 0.0000 0.0000 10.9514 15.1996 -15.1347 -2.4847 -9.8101 28.3638 -0.2086 5.9730 -8.5506 -1.7398 8.3017 -23.6343 -0.8011 -2.1126 11.5781 1.7295 -2.8664 -0.3264 2.7686 -1.3701 -6.7151 -6.4810 -5.7420 -15.5910 3.7802 -6.8618 10.3969 1.5650 -3.3017 6.0457 0.0000 -0.0000 0.0000 -89.9362 12.4252 12.6773 29.6603 -40.6005 -11.1879 -0.0000 -0.0000 8.0025 12.7241 0.9949 0.2246 -7.1250 0.0000 -0.0000 -10.9768 30.8894 3.8473 0.0000 -0.0000 0.0000 83.2244 -11.7249 3.2766 -27.2783 38.4433 -9.6717 0.0000 -0.0000 -2.8793 -26.8039 -10.1413 5.0835 7.1250 -0.0000 -0.0000 0.1933 -41.3118 0.0176
1.9259 17.9492 -26.1956 -181.2160 -15.4595 -179.2980 0.0000 0.0000 0.0000 -19.5079 -14.5036 -16.6503 3.9108 12.0408 35.8765 -0.0949 -19.1326 -12.6212 0.0981 2.0195 5.5596 0.0000 0.0000 0.0000 10.8639 15.2286 -15.0486 -2.4726 -9.7879 28.2925 -0.2153 6.0844 -8.6909 -1.7527 8.3308 -23.7235 -0.8936 -2.1290 11.3742 1.7150 -2.8961 -0.4116 2.8026 -1.3796 -6.6852 -6.4207 -5.7010 -15.8195 3.7526 -6.8028 10.5054 1.5466 -3.2699 6.1118 0.0000 -0.0000 0.0000 -89.9528 12.2191 13.1732 28.9328 -39.9609 -10.7175 -0.0000 -0.0000 8.0724 11.9525 1.3042 0.2761 -7.1250 0.0000 -0.0000 -11.6208 31.1831 3.9976 0.0000 -0.0000 0.0000 83.4808 -11.6237 3.5643 -27.2008 38.3700 -9.6235 0.0000 -0.0000 -2.6686 -26.6194 -10.0488 4.9978 7.1250 -0.0000 -0.0000 0.3498 -41.1911 0.0329
1.8970 17.9555 -26.2148 -181.2280 -15.2079 -179.2530 0.0000 0.0000 0.0000 -19.6023 -14.3262 -16.5469 3.8821 12.0018 35.7383 -0.0968 -19.1260 -12.5995 0.1158 2.1941 6.0424 0.0000 0.0000 0.0000 10.8054 15.2675 -14.9844 -2.4631 -9.7706 28.2369 -0.2233 6.1678 -8.8437 -1.7586 8.3440 -23.7640 -0.9663 -2.1415 11.1782 1.7094 -2.9175 -0.5007 2.8341 -1.3856 -6.6646 -6.3616 -5.6646 -16.0470 3.7275 -6.7505 10.6113 1.5287 -3.2412 6.1774 -0.0000 0.0000 0.0000 -89.9588 11.9772 13.6588 28.2068 -39.3059 -10.2544 -0.0000 -0.0000 8.1904 11.1753 1.6045 0.3169 -7.1250 0.0000 -0.0000 -12.2715 31.4640 4.1459 -0.0000 0.0000 0.0000 83.7248 -11.5448 3.8837 -27.1203 38.2937 -9.5736 0.0000 -0.0000 -2.4715 -26.4180 -9.9741 4.9180 7.1250 -0.0000 -0.0000 0.5224 -41.0888 0.0504
1.8698 17.9618 -26.2331 -181.2140 -14.9592 -179.2010 0.0000 0.0000 0.0000 -19.6551 -14.1230 -16.4894 3.8566 11.9672 35.6159 -0.1044 -19.1455 -12.5454 0.1355 2.3729 6.5375 0.0000 0.0000 0.0000 10.7806 15.3099 -14.9422 -2.4570 -9.7594 28.2010 -0.2329 6.2203 -9.0122 -1.7557 8.3375 -23.7440 -1.0224 -2.1499 10.9883 1.7142 -2.9309 -0.5930 2.8661 -1.3881 -6.6515 -6.3141 -5.6335 -16.2724 3.7128 -6.7048 10.7214 1.5152 -3.2154 6.2452 -0.0000 0.0000 0.0000 -89.9598 11.6983 14.1188 27.4822 -38.6352 -9.7987 -0.0000 -0.0000 8.3689 10.3773 1.9015 0.3481 -7.1250 0.0000 -0.0000 -12.9412 31.7374 4.2950 -0.0000 0.0000 0.0000 83.9553 -11.4743 4.2188 -27.0209 38.1991 -9.5120 0.0000 -0.0000 -2.2681 -26.2072 -9.8991 4.8368 7.1250 -0.0000 -0.0000 0.7029 -40.9857 0.0696
